
<svg
  xmlns="http://www.w3.org/2000/svg"
  aria-hidden="true"
  role="img"
  width="1em"
  height="1em"
  preserveAspectRatio="xMidYMid meet"
  viewBox="0 0 24 24"
  fill="currentColor"
>
  <g fill="none">
    <path
      d="M19 5h-2a2 2 0 0 0-2-2H7a2 2 0 0 0-2 2H3a1 1 0 0 0-1 1v16a1 1 0 0 0 1 1h16a1 1 0 0 0 1-1V6a1 1 0 0 0-1-1zm-8-2h4a1 1 0 0 1 1 1h-6a1 1 0 0 1 1-1zm0 4h4a1 1 0 0 1 1 1h-6a1 1 0 0 1 1-1zm0 4h4a1 1 0 0 1 1 1h-6a1 1 0 0 1 1-1zm0 4h2a1 1 0 0 1 1 1 1 1 0 0 1-1 1h-2a1 1 0 0 1-1-1 1 1 0 0 1 1-1zm-4-4h4a1 1 0 0 1 1 1h-6a1 1 0 0 1 1-1z"
      fill="currentColor"
    ></path>
  </g>
</svg>
